<?xml version="1.0" encoding="iso-8859-1"?>
<!-- Generator: Adobe Illustrator 19.0.0, SVG Export Plug-In . SVG Version: 6.00 Build 0)  -->
<svg version="1.1" id="Layer_1" xmlns="http://www.w3.org/2000/svg" xmlns:xlink="http://www.w3.org/1999/xlink" x="0px" y="0px"
	 viewBox="0 0 512 512" style="enable-background:new 0 0 512 512;" xml:space="preserve">
<path style="fill:#C7CFE2;" d="M207.448,0h-8.828c-2.438,0-4.414,1.976-4.414,4.414V57.38c0,2.438,1.976,4.414,4.414,4.414h8.828
	c2.438,0,4.414-1.976,4.414-4.414V4.414C211.862,1.976,209.886,0,207.448,0z"/>
<path style="fill:#AFB9D2;" d="M251.586,52.966h-61.793c-2.438,0-4.414,1.976-4.414,4.414v17.655c0,2.438,1.976,4.414,4.414,4.414
	h61.793c2.438,0,4.414-1.976,4.414-4.414V57.379C256,54.942,254.024,52.966,251.586,52.966z"/>
<path style="fill:#B4E1FA;" d="M335.448,503.172H176.552V75.034c0-2.438,1.976-4.414,4.414-4.414h79.449
	c2.438,0,4.414,1.976,4.414,4.414l-0.001,85.376c0,4.683,1.86,9.173,5.171,12.484l57.693,57.693
	c4.967,4.967,7.756,11.702,7.756,18.727V503.172L335.448,503.172z"/>
<g>
	<path style="fill:#A0D2F0;" d="M247.172,503.172h17.655V75.034c0-2.438-1.976-4.414-4.414-4.414h-13.241V503.172z"/>
	<rect x="211.86" y="70.62" style="fill:#A0D2F0;" width="17.655" height="432.55"/>
	<path style="fill:#A0D2F0;" d="M194.207,503.172h-17.655V75.034c0-2.438,1.976-4.414,4.414-4.414h13.241V503.172z"/>
	<path style="fill:#A0D2F0;" d="M317.793,220.69v282.483h17.655V249.314c0-7.023-2.79-13.76-7.756-18.727L317.793,220.69z"/>
	<polygon style="fill:#A0D2F0;" points="282.483,185.379 282.483,503.172 300.138,503.172 300.138,203.034 	"/>
	<path style="fill:#A0D2F0;" d="M207.448,441.379h-8.828c-2.438,0-4.414,1.976-4.414,4.414v13.241h17.655v-13.241
		C211.862,443.356,209.886,441.379,207.448,441.379z"/>
	<path style="fill:#A0D2F0;" d="M242.759,441.379h-8.828c-2.438,0-4.414,1.976-4.414,4.414v13.241h17.655v-13.241
		C247.172,443.356,245.196,441.379,242.759,441.379z"/>
	<path style="fill:#A0D2F0;" d="M278.069,441.379h-8.828c-2.438,0-4.414,1.976-4.414,4.414v13.241h17.655v-13.241
		C282.483,443.356,280.506,441.379,278.069,441.379z"/>
	<path style="fill:#A0D2F0;" d="M313.379,441.379h-8.828c-2.438,0-4.414,1.976-4.414,4.414v13.241h17.655v-13.241
		C317.793,443.356,315.817,441.379,313.379,441.379z"/>
</g>
<path style="fill:#AFB9D2;" d="M176.552,423.724v79.448h17.655v-57.379c0-2.438,1.976-4.414,4.414-4.414h8.828
	c2.438,0,4.414,1.976,4.414,4.414v57.379h17.655v-57.379c0-2.438,1.976-4.414,4.414-4.414h8.828c2.438,0,4.414,1.976,4.414,4.414
	v57.379h17.655v-57.379c0-2.438,1.976-4.414,4.414-4.414h8.828c2.438,0,4.414,1.976,4.414,4.414v57.379h17.655v-57.379
	c0-2.438,1.976-4.414,4.414-4.414h8.828c2.438,0,4.414,1.976,4.414,4.414v57.379h17.655v-79.448H176.552z"/>
<path style="fill:#8F96AC;" d="M348.69,512H163.31c-2.438,0-4.414-1.976-4.414-4.414v-8.828c0-2.438,1.976-4.414,4.414-4.414h185.38
	c2.438,0,4.414,1.976,4.414,4.414v8.828C353.103,510.024,351.127,512,348.69,512z"/>
<g>
</g>
<g>
</g>
<g>
</g>
<g>
</g>
<g>
</g>
<g>
</g>
<g>
</g>
<g>
</g>
<g>
</g>
<g>
</g>
<g>
</g>
<g>
</g>
<g>
</g>
<g>
</g>
<g>
</g>
</svg>
